<svg version="1.2" xmlns="http://www.w3.org/2000/svg" viewBox="0 0 697 585" width="697" height="585">
	<title>linelogo-svg-white-svg</title>
	<style>
		.s0 { fill: #fff } 
	</style>
	<g id="Folder 1">
		<g id="Layer">
			<path id="Layer" class="s0" d="m6.6 6.3l-6.1 5.1v175c0 193.5-0.9 181.4 14.1 197.2 12.1 12.5 27.4 17.9 51.4 18.4 17.5 0.2 22.3-0.5 28.6-4.4 15.1-8.6 16.8-26.6 3.6-35.9-6-4.3-9-4.9-24.6-4.3-10 0.5-19.7-0.4-22.1-1.7-2.3-1.1-5.4-5.8-6.7-10.4-1.3-5.2-2.1-63.6-2.1-166.3 0-93.4-0.9-160.4-2-163.4-5.6-14.8-22.5-19.3-34.1-9.3z"/>
			<path id="Layer" class="s0" d="m138.9 60.5c-5 4.8-5.4 7-5.4 25.3 0 22.5 1.9 27.5 12.7 32 7.8 3.3 14.8 1.8 21.5-4.3 4.3-4.1 4.7-6.5 4.7-26.2 0-20.1-0.4-22-5.4-26.8-7.3-7.5-20.8-7.5-28.1 0z"/>
			<path id="Layer" fill-rule="evenodd" class="s0" d="m532.4 170.4c14.8 0.6 19.3 1.7 31 8 15.8 8.2 23.8 17.1 33.1 35.9 21.4 43.2 8.4 90.4-35.1 127.3-6.5 5.4-11.7 11.1-11.7 12.6 0 4.5 18.9 8.2 38.3 7.5 26.4-1.2 45.2-10.5 66.2-32.8 14.7-16 14.9-16.2 22.9-14.3 10.2 2.2 18.6 10 18.6 16.9 0 7.1-11.5 26.6-22.3 38-13.8 14.3-30.9 24.5-50.1 29.7-15 4.1-21 4.5-44.4 3.4-35-1.5-38.5-2.6-70.7-23.1-4.3-2.8-6.2-2.4-21.8 6-21.4 11.5-39.2 15.6-66.8 15.6-38.1 0-53-5.8-61.4-24.9-3.7-7.7-4.1-15.1-4.1-67 0-33.1-1.1-61.8-2.2-66.4-2.6-9.1-12.1-18.1-22.3-20.7-3.9-0.9-16.4-1.3-27.9-0.9l-21 0.9-0.6 78.5c-0.6 75.4-0.9 78.9-5.2 84.5-10.6 14.5-12.5 14.9-55.6 14.9-36.3 0-40-0.4-48.2-4.7-19.9-10.6-32.9-27.9-37.4-50-3.7-18.1-3.2-149.8 0.7-159.4 4.7-11 16.8-15.3 27.2-9.7 9.3 5 9.7 8.7 10.8 88.7 1.1 76.1 1.1 76.7 6.1 83.9 8.2 11.4 14.9 13.6 38.9 12.9l21-0.6 0.6-84.8 0.4-84.5 7-5.9 6.7-5.6 43.4 0.7c41.8 0.6 43.9 0.8 55.8 6.5 16.5 7.5 30.7 21.2 37.9 36.1l6 12.1 0.9 61 0.6 60.9 11.5 1.3c17.7 2.4 51.7-4.7 56-11.4 0.4-0.9-1.9-6.5-5.6-12.3-23.6-37.7-24.2-92.2-1.5-125.5 12.3-18.3 27.9-30.2 48.4-37.2 5.2-1.5 15.6-2.6 25.9-2.1zm-2.5 42.8c-15.6 0-19.9 1.7-29.5 11.5-21.4 21.1-20.3 72 1.8 95.5 8.6 9.1 12.3 8.7 26.6-2.8 29.8-24.2 40.6-50.6 32.6-79.1-1.3-4.6-6-12.1-10.8-16.9-8-8-9.3-8.4-20.7-8.2z"/>
		</g>
		<path id="mapper" class="s0" aria-label="mapper"  d="m29.7 451.7v80.3h-28.8v-107.4h28.6v6.1q14.8-8.6 25.3-8.6 17.4 0 26.8 10.1 19.8-10.1 36.1-10.1 21.3 0 29.4 12.4 8.4 12.3 8.4 39.3v58.2h-28.8v-57.3q0-13.8-3-20.2-3-6.7-12-6.7-6.9 0-16.7 3l-3.3 1.1q0.9 16.1 0.9 24.5v55.6h-28.8v-55.2q0-15.9-2.8-22.3-2.8-6.7-12.2-6.7-8.4 0-16.5 3zm233.6 6.5v44.6q0.4 5.2 1.7 7.3 1.3 2 5.4 2.8l-0.9 21.7q-11 0-17.6-1.5-6.5-1.5-13.1-6-15.5 7.5-31.6 7.5-33.3 0-33.3-35.2 0-17.2 9.3-24.3 9.2-7.3 28.3-8.5l23-1.8v-6.6q0-6.7-3-9-3-2.6-9.7-2.6l-40.3 1.7-0.9-20q23-6.2 43.6-6.2 20.8 0 29.8 8.6 9.3 8.6 9.3 27.5zm-28.8 26.6l-19.5 1.7q-12.1 1.1-12.1 12.9 0 11.8 10.6 11.8 8.1 0 17.8-2.6l3.2-0.8zm85 92.3h-28.7v-152.4h28.5v5.8q14-8.4 24.5-8.4 21.7 0 32 13.1 10.3 12.9 10.3 44 0 31.1-11.4 43.4-11.4 12-37.4 12-7 0-15.2-1.3l-2.6-0.4zm18.7-129.3q-7.9 0-16.1 3.2l-2.6 1.1v56.3q9.7 1.3 15.7 1.3 12.5 0 17-7.3 4.7-7.3 4.7-25 0-29.6-18.7-29.6zm98.1 129.3h-28.7v-152.5h28.5v5.8q14-8.4 24.5-8.4 21.7 0 32 13.1 10.3 12.9 10.3 44.1 0 31.1-11.4 43.3-11.4 12.1-37.3 12.1-7.1 0-15.3-1.3l-2.6-0.5zm18.7-129.2q-7.9 0-16.1 3.2l-2.6 1.1v56.2q9.7 1.3 15.7 1.3 12.5 0 17-7.3 4.7-7.3 4.7-24.9 0-29.6-18.7-29.6zm93 42.7q0.2 9.9 5.1 14.4 5.2 4.3 14.6 4.3 20 0 35.7-1.3l6-0.6 0.4 21.2q-24.7 6-44.6 6-24.3 0-35.2-12.9-11-12.8-11-41.8 0-57.8 47.5-57.8 46.8 0 46.8 48.5l-2.2 20zm-0.2-21.9h37.1q0-12.9-4-17.8-4.1-5.2-14.4-5.2-10.1 0-14.4 5.4-4.1 5.2-4.3 17.6zm114.9 63.4h-28.8v-107.4h28.6v11.4q18-10.8 34.3-14v29q-17.4 3.7-29.8 7.5l-4.3 1.5z"/>
	</g>
</svg>
